<svg xmlns="http://www.w3.org/2000/svg" viewBox="0 0 227.5 201.3"><path d="M114.9 72.3s4-5.2 13.5-5.2h20.8V0H80.6v67.1h20.5c9.6 0 13.8 5.2 13.8 5.2zM90.6 9.5h48.7l-1.9 4.6 1.9 4.7h-19.2v5.3c0 35.8-5.2 42.3-5.2 42.3s-5.4-5.7-5.4-38.6c0-7.8 5.4-9 5.4-9H90.5l1.9-4.6-1.8-4.7zM15 82.7H.3v-10h39.9v10H26v71.8H15V82.7zm41.4 72.6c10.5 0 16.2-6.3 16.2-17.4V102c0-11-5.7-17.4-16.2-17.4C46 84.7 40.2 91 40.2 102v35.9c0 11.1 5.8 17.4 16.2 17.4zm-5.5-54c0-4.9 2.1-6.8 5.5-6.8s5.5 1.9 5.5 6.8v37.3c0 4.9-2.1 6.8-5.5 6.8s-5.5-1.9-5.5-6.8v-37.3zM79 138V85.4h10.7v53.3c0 4.9 2.1 6.7 5.5 6.7s5.5-1.8 5.5-6.7V85.4h10.1V138c0 11-5.4 17.4-15.9 17.4S79 149.1 79 138zm60.5-30v-6.7c0-4.9-2.8-6.8-6.2-6.8-3.4 0-5.5 1.9-5.5 6.8v37.3c0 4.9 2.1 6.7 5.5 6.7s5.5-1.8 5.5-6.7v-9.9h10.1v9.2c0 11-5.4 17.4-15.9 17.4s-15.9-6.3-15.9-17.4V102c0-11 5.4-17.4 15.9-17.4s15.9 6.3 15.9 17.4v6h-9.4zm26.5 46.5h-10.7v-69H166v29.6h12.1V85.5H189v69h-10.8v-29.6H166v29.6zm61.5-29.6v-23.3c0-8.8-3.4-14.6-10.1-16.6l4.8-12.5h-10.8l-4.9 12.3c-7.1 1.8-10.8 7.7-10.8 16.8v36.3c0 11 5.4 17.4 15.9 17.4s15.9-6.3 15.9-17.4v-2.6h-10.1v3.3c0 4.9-2.6 6.7-6 6.7s-5.5-1.8-5.5-6.7v-13.7h21.6zm-21.7-24c0-4.9 2.4-6.8 5.8-6.8s5.9 1.9 5.9 6.8v14.6h-11.8v-14.6zM20.5 187.1l2.1-5-1.3-3.2h2.4l3 8 3.3-8h2.2L27.4 190h-1.5l-2.3-5.6-2.4 5.6h-1.6L15 178.8h2.4l3.1 8.3zm16.9-8.3v11.1h-2.1v-11.1h2.1zm6.8 3.4v7.7h-2v-11.1h1.7l6.4 7.7v-7.7h2v11.1h-1.7l-6.4-7.7zm14.9-1.5v2.7h3.7v1.7h-3.7v3.1h4.3v1.8H57v-11.1h6.4v1.8h-4.3zm21.5.8c0-1.5-1.2-2.6-3.6-2.6h-3.4V190h3.2c2.6 0 4.3-1.3 4.3-3.3 0-1.4-.7-2.3-2.1-2.8 1.1-.5 1.6-1.4 1.6-2.4zm-4.9-1h1.2c1.1 0 1.7.6 1.7 1.4 0 .9-.6 1.6-1.9 1.6h-1v-3zm1.1 7.8h-1.1V185H77c1.3 0 2 .7 2 1.6-.1 1-.7 1.7-2.2 1.7zm14.6-1.2l1.1 2.9h2.4l-4.8-11.3h-1.6L83.6 190H86l1.1-2.9h4.3zm-2.1-5.5l1.5 3.9h-3.2l1.7-3.9zm16.4.6c0-2.1-1.5-3.3-4.1-3.3h-3.2V190h2.1v-4.3h.7l3.3 4.3h2.6l-3.8-4.7c1.5-.6 2.4-1.7 2.4-3.1zm-5.1 2.1h-.2v-3.6h.9c1.4 0 2.2.6 2.2 1.7.1 1.2-.9 1.9-2.9 1.9zm13.9 2.5c0 1.8 1.5 3.4 4 3.4 1 0 1.8-.3 2.5-.9l.5.6h2.6l-1.9-2.2c.3-.4.5-.9.7-1.5l.6-1.6h-2c-.2.6-.4 1.1-.6 1.5-.5-.6-1.1-1.4-1.8-2.2 1.3-.7 2-1.4 2-2.6.1-3.3-5.1-3.5-5.5-.4-.1 1 .3 1.9.9 2.7-1.4 1.2-2 2.1-2 3.2zm3.1-5.6c.1-1.2 1.9-1.1 1.9.2 0 .8-.5 1.2-1.1 1.6-.6-.8-.8-1.2-.8-1.8zm.1 3.8l.2.2c.9 1.1 1.6 2 2.1 2.7-.4.4-.9.6-1.5.6-1.1 0-1.9-.7-1.9-1.6 0-.7.3-1.3 1.1-1.9zm17.6-6.2v5.1l4.4-5.1h2.7l-4.9 5.4 5.3 5.7H140l-4.7-5.3v5.3h-2.1v-11.1h2.1zm12.7 0v11.1h-2v-11.1h2zm7.4 11.1v-9.2h-3.6v-1.9h9.4v1.9h-3.6v9.2h-2.2zm10.4-5.5c0 2.2 1.4 3.7 3.6 3.7 1.4 0 2.5-.6 3.5-1.8l-.2 2.7c-.9.7-2.3 1.1-3.5 1.1-3.3 0-5.6-2.3-5.6-5.8 0-3 2.3-5.7 5.6-5.7 1.4 0 2.6.3 3.6 1l-.2 2.5c-.7-.9-1.8-1.5-3.2-1.5-2.2.1-3.6 1.7-3.6 3.8zm13.4-5.6v4.4h4.8v-4.4h2.1v11.1H184v-4.8h-4.8v4.8h-2.1v-11.1h2.1zm13.7 1.9v2.7h3.7v1.7h-3.7v3.1h4.3v1.8h-6.4v-11.1h6.4v1.8h-4.3zm10.6 1.5v7.7h-2v-11.1h1.7l6.4 7.7v-7.7h2v11.1h-1.7l-6.4-7.7zM1.2 167.3h224.9v2.1H1.2v-2.1zm0 32h224.9v2.1H1.2v-2.1z"/></svg>