<svg version="1" id="Layer_1" xmlns="http://www.w3.org/2000/svg" xmlns:xlink="http://www.w3.org/1999/xlink" viewBox="0 0 353.6 315.3"><style>.st1{clip-path:url(#SVGID_4_)}</style><defs><path id="SVGID_1_" d="M177.4 114.1s6.1-7.9 20.6-7.9h31.7V4H125.2v102.1h31.3c14.5.1 20.9 8 20.9 8zm-37.1-95.7h74l-2.8 7 2.9 7.1h-29.2v8c0 54.5-7.9 64.3-7.9 64.3s-8.2-8.6-8.2-58.7c0-11.9 8.2-13.6 8.2-13.6h-37.1l2.9-7-2.8-7.1zm-115 111.5H3v-15.3h60.7v15.3H42v109.2H25.3V129.9zm63 110.4c15.9 0 24.6-9.6 24.6-26.4v-54.6c0-16.8-8.7-26.4-24.6-26.4s-24.6 9.6-24.6 26.4v54.6c0 16.8 8.7 26.4 24.6 26.4zm-8.4-82.1c0-7.5 3.2-10.4 8.4-10.4s8.4 2.9 8.4 10.4v56.7c0 7.5-3.2 10.4-8.4 10.4s-8.4-2.9-8.4-10.4v-56.7zm42.8 55.8v-80h16.2v81.1c0 7.5 3.2 10.2 8.4 10.2s8.4-2.7 8.4-10.2V134H171v80c0 16.8-8.3 26.4-24.2 26.4s-24.1-9.6-24.1-26.4zm92.1-45.6v-10.2c0-7.5-4.3-10.4-9.5-10.4s-8.4 2.9-8.4 10.4v56.7c0 7.5 3.2 10.2 8.4 10.2s8.4-2.7 8.4-10.2v-15H229v14c0 16.8-8.3 26.4-24.2 26.4s-24.2-9.6-24.2-26.4v-54.6c0-16.8 8.3-26.4 24.2-26.4s24.2 9.6 24.2 26.4v9.1h-14.2zm40.3 70.7h-16.2V134h16.2v45h18.4v-45H290v105.1h-16.5V194h-18.4v45.1zm93.5-45v-35.5c0-13.4-5.2-22.2-15.4-25.2l7.3-19.1h-16.4l-7.4 18.7c-10.9 2.7-16.5 11.7-16.5 25.5v55.3c0 16.8 8.3 26.4 24.2 26.4 15.9 0 24.2-9.6 24.2-26.4v-3.9h-15.3v5c0 7.5-4 10.2-9.1 10.2-5.2 0-8.4-2.7-8.4-10.2V194h32.8zm-32.9-36.6c0-7.5 3.7-10.4 8.8-10.4 5.2 0 9 2.9 9 10.4v22.3h-17.9v-22.3zm-282 131.1L37 281l-2-4.9h3.6l4.5 12.1 5-12.1h3.4L44.2 293h-2.3l-3.5-8.6-3.6 8.6h-2.4l-7-16.9H29l4.7 12.5zm22.6 4.4h3.1v-16.9h-3.1V293zm13.4-11.8V293h-3.1v-16.9h2.6l9.8 11.7v-11.7h3.1V293h-2.6l-9.8-11.8zm22.8-2.3v4h5.6v2.6h-5.6v4.7h6.6v2.8h-9.7v-16.9H99v2.8h-6.5zm32.6 1.3c0-2.3-1.9-4-5.5-4h-5.1V293h4.9c3.9 0 6.5-2 6.5-5 0-2.1-1.1-3.5-3.1-4.2 1.5-.7 2.3-2.1 2.3-3.6zm-7.4-1.5h1.8c1.7 0 2.6 1 2.6 2.1 0 1.3-.9 2.4-2.8 2.4h-1.5v-4.5zm1.7 11.8h-1.7v-4.9h1.9c1.9 0 3 1 3 2.4s-1 2.5-3.2 2.5zm22.2-1.9l1.7 4.4h3.6l-7.3-17.1h-2.4l-7.4 17.1h3.6l1.7-4.4h6.5zm-3.2-8.3l2.3 6h-4.8l2.5-6zm24.9.9c0-3.2-2.3-5-6.2-5h-4.9V293h3.1v-6.6h1l5 6.6h4l-5.7-7.2c2.3-.7 3.7-2.4 3.7-4.6zm-7.7 3.2h-.3v-5.5h1.4c2.1 0 3.4.9 3.4 2.6 0 1.8-1.5 2.9-4.5 2.9zm21.2 3.8c0 2.7 2.3 5.1 6.1 5.1 1.5 0 2.7-.5 3.9-1.4l.8 1h4l-2.8-3.4c.4-.7.7-1.4 1.1-2.2l.9-2.4h-3c-.3.9-.6 1.7-.9 2.4-.8-1-1.7-2.1-2.8-3.4 1.9-1 3-2.2 3.1-3.9.2-5.1-7.8-5.3-8.3-.6-.2 1.5.5 2.9 1.4 4.2-2.7 1.5-3.5 3-3.5 4.6zm4.7-8.5c.2-1.8 2.9-1.7 2.9.2 0 1.2-.7 1.8-1.7 2.4-.9-1-1.3-1.6-1.2-2.6zm.1 5.8l.3.3c1.4 1.7 2.4 3.1 3.2 4.1-.6.6-1.4.9-2.2.9-1.6 0-3-1-2.9-2.4-.1-1.1.4-2 1.6-2.9zm26.8-9.4v7.7l6.6-7.7h4.2l-7.5 8.2 8.1 8.7h-4.3l-7.1-8v8h-3.1v-16.9h3.1zm16.2 16.9h3.1v-16.9h-3.1V293zm14.4 0v-14h-5.5v-2.9h14.3v2.9h-5.6v14H239zm15.8-8.4c0 3.3 2.2 5.7 5.4 5.7 2.1 0 3.9-.9 5.3-2.8h.1l-.3 4.2c-1.4 1.1-3.4 1.7-5.4 1.7-5 0-8.5-3.5-8.5-8.8 0-4.6 3.5-8.7 8.5-8.7 2.2 0 4 .5 5.4 1.5l-.3 3.7c-1-1.4-2.7-2.2-4.8-2.2-3.3 0-5.4 2.5-5.4 5.7zm20.3-8.5v6.7h7.4v-6.7h3.1V293h-3.1v-7.3h-7.4v7.3H272v-16.9h3.1zm20.9 2.8v4h5.6v2.6H296v4.7h6.6v2.8h-9.7v-16.9h9.7v2.8H296zm16.1 2.3V293H309v-16.9h2.6l9.8 11.7v-11.7h3.1V293h-2.6l-9.8-11.8zM4.3 261.7h342.3v-3.1H4.3v3.1zm0 48.6h342.3v-3.1H4.3v3.1z"/></defs><clipPath id="SVGID_2_"><use xlink:href="#SVGID_1_" overflow="visible"/></clipPath><g clip-path="url(#SVGID_2_)"><defs><path id="SVGID_3_" d="M-2-1h359v317H-2z"/></defs><clipPath id="SVGID_4_"><use xlink:href="#SVGID_3_" overflow="visible"/></clipPath><g class="st1"><defs><path id="SVGID_5_" d="M3 4h346v307H3z"/></defs><clipPath id="SVGID_6_"><use xlink:href="#SVGID_5_" overflow="visible"/></clipPath><path clip-path="url(#SVGID_6_)" fill="#231f20" d="M-2-1h355.6v316.3H-2z"/></g><g class="st1"><defs><path id="SVGID_7_" d="M0 0h357v310H0z"/></defs><clipPath id="SVGID_8_"><use xlink:href="#SVGID_7_" overflow="visible"/></clipPath><g clip-path="url(#SVGID_8_)"><defs><path id="SVGID_9_" d="M3 4h346v306H3z"/></defs><clipPath id="SVGID_10_"><use xlink:href="#SVGID_9_" overflow="visible"/></clipPath><path clip-path="url(#SVGID_10_)" fill="#2b2b2b" d="M-5-5h367v320H-5z"/></g></g></g></svg>